<svg width="32" height="32" viewBox="0 0 32 32" fill="none" xmlns="http://www.w3.org/2000/svg">
<path d="M10.6641 16.2656H19.9974" stroke="#1B1B1B" stroke-width="2" stroke-miterlimit="10" stroke-linecap="round" stroke-linejoin="round"/>
<path d="M10.6641 21.5996H16.5041" stroke="#1B1B1B" stroke-width="2" stroke-miterlimit="10" stroke-linecap="round" stroke-linejoin="round"/>
<path d="M13.3307 7.99935H18.6641C21.3307 7.99935 21.3307 6.66602 21.3307 5.33268C21.3307 2.66602 19.9974 2.66602 18.6641 2.66602H13.3307C11.9974 2.66602 10.6641 2.66602 10.6641 5.33268C10.6641 7.99935 11.9974 7.99935 13.3307 7.99935Z" stroke="#1B1B1B" stroke-width="2" stroke-miterlimit="10" stroke-linecap="round" stroke-linejoin="round"/>
<path d="M21.3333 5.35938C25.7733 5.59938 28 7.23937 28 13.3327V21.3327C28 26.666 26.6667 29.3327 20 29.3327H12C5.33333 29.3327 4 26.666 4 21.3327V13.3327C4 7.25271 6.22667 5.59938 10.6667 5.35938" stroke="#1B1B1B" stroke-width="2" stroke-miterlimit="10" stroke-linecap="round" stroke-linejoin="round"/>
</svg>
