<svg width="32" height="32" viewBox="0 0 32 32" fill="none" xmlns="http://www.w3.org/2000/svg">
<path d="M14.6641 2.66602H11.9974C5.33073 2.66602 2.66406 5.33268 2.66406 11.9993V19.9993C2.66406 26.666 5.33073 29.3327 11.9974 29.3327H19.9974C26.6641 29.3327 29.3307 26.666 29.3307 19.9993V17.3327" stroke="#171717" stroke-width="2" stroke-linecap="round" stroke-linejoin="round"/>
<path d="M21.3865 4.02505L10.8798 14.5317C10.4798 14.9317 10.0798 15.7184 9.99984 16.2917L9.42651 20.3051C9.21317 21.7584 10.2398 22.7717 11.6932 22.5717L15.7065 21.9984C16.2665 21.9184 17.0532 21.5184 17.4665 21.1184L27.9732 10.6117C29.7865 8.79838 30.6398 6.69172 27.9732 4.02505C25.3065 1.35838 23.1998 2.21172 21.3865 4.02505Z" stroke="#171717" stroke-width="2" stroke-miterlimit="10" stroke-linecap="round" stroke-linejoin="round"/>
<path d="M19.875 5.5332C20.7683 8.71987 23.2617 11.2132 26.4617 12.1199" stroke="#171717" stroke-width="2" stroke-miterlimit="10" stroke-linecap="round" stroke-linejoin="round"/>
</svg>
