<svg width="32" height="32" viewBox="0 0 32 32" fill="none" xmlns="http://www.w3.org/2000/svg">
<path d="M24.1858 28.827C23.0125 29.1737 21.6258 29.3337 19.9992 29.3337H11.9992C10.3725 29.3337 8.98583 29.1737 7.8125 28.827C8.10583 25.3603 11.6658 22.627 15.9992 22.627C20.3325 22.627 23.8925 25.3603 24.1858 28.827Z" stroke="#1B1B1B" stroke-width="2" stroke-linecap="round" stroke-linejoin="round"/>
<path d="M19.9974 2.66602H11.9974C5.33073 2.66602 2.66406 5.33268 2.66406 11.9993V19.9993C2.66406 25.0393 4.18406 27.7993 7.81073 28.826C8.10406 25.3593 11.6641 22.626 15.9974 22.626C20.3307 22.626 23.8907 25.3593 24.1841 28.826C27.8107 27.7993 29.3307 25.0393 29.3307 19.9993V11.9993C29.3307 5.33268 26.6641 2.66602 19.9974 2.66602ZM15.9974 18.8927C13.3574 18.8927 11.2241 16.746 11.2241 14.106C11.2241 11.466 13.3574 9.33268 15.9974 9.33268C18.6374 9.33268 20.7707 11.466 20.7707 14.106C20.7707 16.746 18.6374 18.8927 15.9974 18.8927Z" stroke="#1B1B1B" stroke-width="2" stroke-linecap="round" stroke-linejoin="round"/>
<path d="M20.7732 14.1073C20.7732 16.7473 18.6399 18.894 15.9999 18.894C13.3599 18.894 11.2266 16.7473 11.2266 14.1073C11.2266 11.4673 13.3599 9.33398 15.9999 9.33398C18.6399 9.33398 20.7732 11.4673 20.7732 14.1073Z" stroke="#1B1B1B" stroke-width="2" stroke-linecap="round" stroke-linejoin="round"/>
</svg>
