<svg width="32" height="32" viewBox="0 0 32 32" fill="none" xmlns="http://www.w3.org/2000/svg">
<path d="M19.0182 20.584H12.3516" stroke="#1B1B1B" stroke-width="2" stroke-miterlimit="10" stroke-linecap="round" stroke-linejoin="round"/>
<path d="M15.6875 17.3301V23.9967" stroke="#1B1B1B" stroke-width="2" stroke-miterlimit="10" stroke-linecap="round" stroke-linejoin="round"/>
<path d="M16.8839 3.35686L16.8439 3.4502L12.9772 12.4235H9.17719C8.27052 12.4235 7.40385 12.6102 6.61719 12.9435L8.95052 7.3702L9.00385 7.23686L9.09719 7.02353C9.12385 6.94353 9.15052 6.86353 9.19052 6.79686C10.9372 2.75686 12.9105 1.83686 16.8839 3.35686Z" stroke="#1B1B1B" stroke-width="2" stroke-linecap="round" stroke-linejoin="round"/>
<path d="M24.0621 12.6908C23.4621 12.5041 22.8221 12.4241 22.1821 12.4241H12.9688L16.8354 3.45076L16.8754 3.35742C17.0754 3.42409 17.2621 3.51742 17.4621 3.59742L20.4088 4.83742C22.0488 5.51742 23.1954 6.22409 23.8887 7.07742C24.0221 7.23742 24.1287 7.38409 24.2221 7.55742C24.3421 7.74409 24.4354 7.93076 24.4888 8.13076C24.5421 8.25076 24.5821 8.37076 24.6088 8.47742C24.9688 9.59742 24.7554 10.9708 24.0621 12.6908Z" stroke="#1B1B1B" stroke-width="2" stroke-linecap="round" stroke-linejoin="round"/>
<path d="M28.7008 18.9305V21.5305C28.7008 21.7972 28.6875 22.0638 28.6742 22.3305C28.4208 26.9838 25.8208 29.3305 20.8875 29.3305H10.4875C10.1675 29.3305 9.8475 29.3038 9.54083 29.2638C5.30083 28.9838 3.03417 26.7172 2.75417 22.4772C2.71417 22.1705 2.6875 21.8505 2.6875 21.5305V18.9305C2.6875 16.2505 4.31417 13.9438 6.63417 12.9438C7.43417 12.6105 8.2875 12.4238 9.19417 12.4238H22.2075C22.8608 12.4238 23.5008 12.5172 24.0875 12.6905C26.7408 13.5038 28.7008 15.9838 28.7008 18.9305Z" stroke="#1B1B1B" stroke-width="2" stroke-linecap="round" stroke-linejoin="round"/>
<path d="M8.94406 7.36914L6.61073 12.9425C4.29073 13.9425 2.66406 16.2491 2.66406 18.9291V15.0225C2.66406 11.2358 5.3574 8.07581 8.94406 7.36914Z" stroke="#1B1B1B" stroke-width="2" stroke-linecap="round" stroke-linejoin="round"/>
<path d="M28.6993 15.0242V18.9309C28.6993 15.9975 26.7526 13.5042 24.0859 12.7042C24.7793 10.9709 24.9793 9.61086 24.6459 8.47753C24.6193 8.35753 24.5793 8.23753 24.5259 8.13086C27.0059 9.41086 28.6993 12.0375 28.6993 15.0242Z" stroke="#1B1B1B" stroke-width="2" stroke-linecap="round" stroke-linejoin="round"/>
</svg>
